<svg width="955" height="1016" viewBox="0 0 955 1016" fill="none" xmlns="http://www.w3.org/2000/svg">
<g id="Group">
<path id="Vector" d="M562.779 716.822C389.185 759.93 116.902 778.802 71.5114 687.422C26.1204 596.042 240.733 396.077 344.902 278.196C449.072 160.316 470.338 134.718 571.524 121.596C672.71 108.474 761.169 140.44 830.593 215.212C900.018 289.985 960.556 376.003 904.761 480.505" stroke="url(#paint0_linear_4610_3082)" stroke-width="2"/>
<path id="Vector_2" d="M559.447 704.529C396.065 745.101 139.799 762.863 97.0777 676.858C54.3569 590.853 256.345 402.651 354.387 291.705C452.429 180.758 472.444 156.666 567.678 144.316C662.911 131.966 746.167 162.051 811.508 232.426C876.848 302.8 933.826 383.758 881.313 482.113" stroke="url(#paint1_linear_4610_3082)" stroke-width="2"/>
<path id="Vector_3" d="M556.116 692.236C402.945 730.272 162.695 746.924 122.644 666.294C82.5933 585.665 271.957 409.225 363.872 305.213C455.786 201.201 474.55 178.614 563.832 167.036C653.113 155.458 731.165 183.663 792.422 249.639C853.679 315.615 907.095 391.513 857.865 483.72" stroke="url(#paint2_linear_4610_3082)" stroke-width="2"/>
<path id="Vector_4" d="M552.784 679.942C409.824 715.443 185.591 730.985 148.21 655.73C110.83 580.476 287.57 415.799 373.356 318.721C459.143 221.643 476.656 200.562 559.986 189.756C643.315 178.95 716.164 205.274 773.337 266.852C830.51 328.429 880.365 399.268 834.416 485.328" stroke="url(#paint3_linear_4610_3082)" stroke-width="2"/>
<path id="Vector_5" d="M549.452 667.649C416.704 700.614 208.488 715.046 173.777 645.167C139.066 575.288 303.182 422.373 382.841 332.229C462.5 242.086 478.762 222.51 556.139 212.476C633.517 202.442 701.162 226.886 754.251 284.065C807.341 341.244 853.635 407.023 810.968 486.936" stroke="url(#paint4_linear_4610_3082)" stroke-width="2"/>
<path id="Vector_6" d="M546.12 655.356C423.584 685.785 231.384 699.107 199.343 634.603C167.303 570.099 318.794 428.947 392.325 345.738C465.856 262.528 480.868 244.459 552.293 235.196C623.718 225.934 686.16 248.498 735.166 301.278C784.171 354.059 826.904 414.778 787.52 488.544" stroke="url(#paint5_linear_4610_3082)" stroke-width="2"/>
<path id="Vector_7" d="M542.789 643.063C430.463 670.956 254.28 683.167 224.91 624.039C195.539 564.91 334.406 435.522 401.81 359.246C469.213 282.97 482.974 266.407 548.447 257.916C613.92 249.426 671.159 270.109 716.08 318.492C761.002 366.874 800.174 422.532 764.071 490.151" stroke="url(#paint6_linear_4610_3082)" stroke-width="2"/>
<path id="Vector_8" d="M539.457 630.769C437.343 656.127 277.177 667.228 250.476 613.475C223.775 559.722 350.018 442.096 411.294 372.754C472.57 303.413 485.08 288.355 544.601 280.636C604.122 272.918 656.157 291.721 696.995 335.705C737.833 379.689 773.443 430.287 740.623 491.759" stroke="url(#paint7_linear_4610_3082)" stroke-width="2"/>
<path id="Vector_9" d="M536.125 618.476C444.223 641.298 300.073 651.289 276.042 602.911C252.012 554.533 365.63 448.67 420.779 386.262C475.927 323.855 487.186 310.303 540.755 303.356C594.324 296.41 641.155 313.332 677.909 352.918C714.663 392.503 746.713 438.042 717.175 493.367" stroke="url(#paint8_linear_4610_3082)" stroke-width="2"/>
<path id="Vector_10" d="M532.794 606.183C451.102 626.469 322.969 635.35 301.609 592.347C280.248 549.345 381.243 455.244 430.263 399.771C479.284 344.298 489.292 332.251 536.909 326.076C584.526 319.902 626.153 334.944 658.824 370.131C691.494 405.318 719.983 445.797 693.726 494.975" stroke="url(#paint9_linear_4610_3082)" stroke-width="2"/>
<path id="Vector_11" d="M529.462 593.89C457.982 611.64 345.866 619.411 327.175 581.784C308.485 544.156 396.855 461.818 439.748 413.279C482.641 364.74 491.398 354.2 533.063 348.796C574.727 343.393 611.152 356.556 639.738 387.344C668.325 418.133 693.252 453.552 670.278 496.582" stroke="url(#paint10_linear_4610_3082)" stroke-width="2"/>
<path id="Vector_12" d="M526.13 581.596C464.862 596.811 368.762 603.472 352.742 571.22C336.721 538.968 412.467 468.392 449.233 426.787C485.998 385.182 493.504 376.148 529.217 371.517C564.929 366.885 596.15 378.167 620.653 404.558C645.156 430.948 666.522 461.307 646.83 498.19" stroke="url(#paint11_linear_4610_3082)" stroke-width="2"/>
<path id="Vector_13" d="M522.798 569.303C471.741 581.982 391.658 587.533 378.308 560.656C364.958 533.779 428.079 474.966 458.717 440.296C489.355 405.625 495.61 398.096 525.37 394.237C555.131 390.377 581.148 399.779 601.567 421.771C621.986 443.763 639.792 469.062 623.381 499.798" stroke="url(#paint12_linear_4610_3082)" stroke-width="2"/>
<path id="Vector_14" d="M519.467 557.01C478.621 567.153 414.554 571.593 403.874 550.092C393.194 528.591 443.691 481.54 468.202 453.804C492.712 426.067 497.716 420.044 521.524 416.957C545.333 413.869 566.147 421.39 582.482 438.984C598.817 456.578 613.061 476.817 599.933 501.406" stroke="url(#paint13_linear_4610_3082)" stroke-width="2"/>
<path id="Vector_15" d="M516.135 544.717C485.501 552.324 437.451 555.654 429.441 539.528C421.43 523.402 459.303 488.114 477.686 467.312C496.069 446.51 499.822 441.992 517.678 439.677C535.534 437.361 551.145 443.002 563.396 456.197C575.648 469.392 586.331 484.572 576.485 503.014" stroke="url(#paint14_linear_4610_3082)" stroke-width="2"/>
<path id="Vector_16" d="M512.803 532.423C492.38 537.495 460.347 539.715 455.007 528.964C449.667 518.214 474.915 494.689 487.171 480.82C499.426 466.952 501.928 463.94 513.832 462.397C525.736 460.853 536.143 464.614 544.311 473.41C552.478 482.207 559.6 492.327 553.036 504.621" stroke="url(#paint15_linear_4610_3082)" stroke-width="2"/>
<path id="Vector_17" d="M509.471 520.13C499.26 522.666 483.243 523.776 480.573 518.401C477.903 513.025 490.528 501.263 496.655 494.329C502.783 487.394 504.034 485.889 509.986 485.117C515.938 484.345 521.142 486.225 525.225 490.624C529.309 495.022 532.87 500.082 529.588 506.229" stroke="url(#paint16_linear_4610_3082)" stroke-width="2"/>
</g>
<defs>
<linearGradient id="paint0_linear_4610_3082" x1="20598.9" y1="19681.2" x2="-40656.5" y2="81886.1" gradientUnits="userSpaceOnUse">
<stop offset="0.45" stop-color="#FEBE58"/>
<stop offset="1" stop-color="#00A6FF"/>
</linearGradient>
<linearGradient id="paint1_linear_4610_3082" x1="19416.9" y1="18553.4" x2="-38235.2" y2="77099.2" gradientUnits="userSpaceOnUse">
<stop offset="0.45" stop-color="#FEBE58"/>
<stop offset="1" stop-color="#00A6FF"/>
</linearGradient>
<linearGradient id="paint2_linear_4610_3082" x1="18235" y1="17425.5" x2="-35813.8" y2="72312.2" gradientUnits="userSpaceOnUse">
<stop offset="0.45" stop-color="#FEBE58"/>
<stop offset="1" stop-color="#00A6FF"/>
</linearGradient>
<linearGradient id="paint3_linear_4610_3082" x1="17053.1" y1="16297.7" x2="-33392.5" y2="67525.3" gradientUnits="userSpaceOnUse">
<stop offset="0.45" stop-color="#FEBE58"/>
<stop offset="1" stop-color="#00A6FF"/>
</linearGradient>
<linearGradient id="paint4_linear_4610_3082" x1="15871.2" y1="15169.8" x2="-30971.2" y2="62738.3" gradientUnits="userSpaceOnUse">
<stop offset="0.45" stop-color="#FEBE58"/>
<stop offset="1" stop-color="#00A6FF"/>
</linearGradient>
<linearGradient id="paint5_linear_4610_3082" x1="14689.2" y1="14042" x2="-28549.8" y2="57951.3" gradientUnits="userSpaceOnUse">
<stop offset="0.45" stop-color="#FEBE58"/>
<stop offset="1" stop-color="#00A6FF"/>
</linearGradient>
<linearGradient id="paint6_linear_4610_3082" x1="13507.3" y1="12914.1" x2="-26128.5" y2="53164.4" gradientUnits="userSpaceOnUse">
<stop offset="0.45" stop-color="#FEBE58"/>
<stop offset="1" stop-color="#00A6FF"/>
</linearGradient>
<linearGradient id="paint7_linear_4610_3082" x1="12325.4" y1="11786.3" x2="-23707.2" y2="48377.4" gradientUnits="userSpaceOnUse">
<stop offset="0.45" stop-color="#FEBE58"/>
<stop offset="1" stop-color="#00A6FF"/>
</linearGradient>
<linearGradient id="paint8_linear_4610_3082" x1="11143.5" y1="10658.4" x2="-21285.8" y2="43590.5" gradientUnits="userSpaceOnUse">
<stop offset="0.45" stop-color="#FEBE58"/>
<stop offset="1" stop-color="#00A6FF"/>
</linearGradient>
<linearGradient id="paint9_linear_4610_3082" x1="9961.54" y1="9530.6" x2="-18864.5" y2="38803.5" gradientUnits="userSpaceOnUse">
<stop offset="0.45" stop-color="#FEBE58"/>
<stop offset="1" stop-color="#00A6FF"/>
</linearGradient>
<linearGradient id="paint10_linear_4610_3082" x1="8779.61" y1="8402.76" x2="-16443.2" y2="34016.6" gradientUnits="userSpaceOnUse">
<stop offset="0.45" stop-color="#FEBE58"/>
<stop offset="1" stop-color="#00A6FF"/>
</linearGradient>
<linearGradient id="paint11_linear_4610_3082" x1="7597.69" y1="7274.91" x2="-14021.8" y2="29229.6" gradientUnits="userSpaceOnUse">
<stop offset="0.45" stop-color="#FEBE58"/>
<stop offset="1" stop-color="#00A6FF"/>
</linearGradient>
<linearGradient id="paint12_linear_4610_3082" x1="6415.76" y1="6147.07" x2="-11600.5" y2="24442.6" gradientUnits="userSpaceOnUse">
<stop offset="0.45" stop-color="#FEBE58"/>
<stop offset="1" stop-color="#00A6FF"/>
</linearGradient>
<linearGradient id="paint13_linear_4610_3082" x1="5233.84" y1="5019.22" x2="-9179.18" y2="19655.7" gradientUnits="userSpaceOnUse">
<stop offset="0.45" stop-color="#FEBE58"/>
<stop offset="1" stop-color="#00A6FF"/>
</linearGradient>
<linearGradient id="paint14_linear_4610_3082" x1="4051.91" y1="3891.37" x2="-6757.85" y2="14868.7" gradientUnits="userSpaceOnUse">
<stop offset="0.45" stop-color="#FEBE58"/>
<stop offset="1" stop-color="#00A6FF"/>
</linearGradient>
<linearGradient id="paint15_linear_4610_3082" x1="2869.99" y1="2763.53" x2="-4336.52" y2="10081.8" gradientUnits="userSpaceOnUse">
<stop offset="0.45" stop-color="#FEBE58"/>
<stop offset="1" stop-color="#00A6FF"/>
</linearGradient>
<linearGradient id="paint16_linear_4610_3082" x1="1688.06" y1="1635.68" x2="-1915.19" y2="5294.8" gradientUnits="userSpaceOnUse">
<stop offset="0.45" stop-color="#FEBE58"/>
<stop offset="1" stop-color="#00A6FF"/>
</linearGradient>
</defs>
</svg>
