<svg xmlns="http://www.w3.org/2000/svg" version="1.1" xmlns:xlink="http://www.w3.org/1999/xlink" xmlns:svgjs="http://svgjs.dev/svgjs" viewBox="0 0 800 800"><g stroke-width="2" stroke="#febe58" fill="none"><path d="M592.2189210305202 121.71732591286195C646.2224044288291 220.6328824706734 567.2571082846448 455.52647541439546 488.53250881469876 583.514902978221C409.8079093447525 711.5033305420463 270.42290419721667 769.6416383054561 214.34084357477877 736.0617782192234C158.25878295234082 702.4819181329904 216.2188376336547 553.0277301306559 219.3386178269957 422.3315745643024C222.45839802033674 291.6354189979488 151.6323920020822 171.34819996977632 229.31578850281642 108.7202315007263C306.9991850035506 46.092263031676225 538.2154376322112 22.80176935505051 592.2189210305202 121.71732591286195C646.2224044288291 220.6328824706734 567.2571082846448 455.52647541439546 488.53250881469876 583.514902978221 "></path><path d="M582.6079704013574 135.63145503958214C633.9112796297509 229.60123376950298 558.894248292776 452.75014706603906 484.10587879632703 574.3391532516732C409.3175092998782 695.9281594373074 276.90175440971916 751.1595518125469 223.6237968184031 719.2586847306255C170.34583922708703 687.3578176487042 225.40789117433525 545.3763390464864 228.3716823580092 421.2149912584505C231.3354735416832 297.0536434704146 164.0507678243414 182.78078539365077 237.84999450003886 123.28421534805324C311.6492211757364 63.7876453024557 531.304661172964 41.66167630966129 582.6079704013574 135.63145503958214C633.9112796297509 229.60123376950298 558.894248292776 452.75014706603906 484.10587879632703 574.3391532516732 "></path><path d="M572.9970197721948 149.54558416630232C621.6001548306726 238.56958506833263 550.5313883009069 449.97381871768243 479.6792487779554 565.1634035251254C408.82710925500385 680.3529883325683 283.3806046222216 732.6774653196372 232.9067500620274 702.4555912420276C182.4328955018333 672.2337171644178 234.59694471501575 537.724947962317 237.4047468890227 420.0984079525987C240.2125490630296 302.4718679428805 176.46914364660057 194.2133708175253 246.38420049726136 137.84819919538023C316.2992573479221 81.48302757323518 524.3938847137167 60.52158326427207 572.9970197721948 149.54558416630232C621.6001548306726 238.56958506833263 550.5313883009069 449.97381871768243 479.6792487779554 565.1634035251254 "></path><path d="M563.386069143032 163.4597132930225C609.2890300315946 247.53793636716227 542.1685283090379 447.19749036932603 475.2526187595837 555.9876537985776C408.3367092101296 664.7778172278294 289.85945483472403 714.1953788267277 242.1897033056518 685.6524977534298C194.51995177657955 657.1096166801317 243.7859982556963 530.0735568781474 246.4378114200362 418.9818246467469C249.08962458437605 307.8900924153463 188.88751946885975 205.64595624139974 254.9184064944838 152.41218304270717C320.94929352010786 99.17840984401465 517.4831082544695 79.38149021888279 563.386069143032 163.4597132930225C609.2890300315946 247.53793636716227 542.1685283090379 447.19749036932603 475.2526187595837 555.9876537985776 "></path><path d="M553.7751642902365 177.3738424197427C596.9779510088836 256.50628766599186 533.8057140935362 444.4211620209695 470.8260345175793 546.8119040720298C407.8463549416224 649.2026461230902 296.33835082359366 695.7132923338181 251.4727023256433 668.8494042648317C206.60705382769294 641.9855161958453 252.97509757274406 522.4221657939778 255.4709217274169 417.86524134089495C257.9667458820897 313.3083168878121 201.30594106748612 217.0785416652742 263.45265826807344 166.97616689003416C325.5993754686608 116.87379211479413 510.5723775715894 98.24139717349357 553.7751642902365 177.3738424197427C596.9779510088836 256.50628766599186 533.8057140935362 444.4211620209695 470.8260345175793 546.8119040720298 "></path><path d="M544.1642136610737 191.28797154646287C584.6668262098053 265.47463896482145 525.4428541016672 441.644833672613 466.39940449920755 537.636154345482C407.355954896748 633.6274750183511 302.8172010360961 677.2312058409086 260.7556555692677 652.0463107762339C218.6941101024392 626.8614157115592 262.1641511134246 514.7707747098083 264.50398625843036 416.74865803504315C266.84382140343615 318.726541360278 213.72431688974524 228.51112708914866 271.98686426529594 181.5401507373611C330.2494116408466 134.5691743855736 503.66160111234217 117.10130412810429 544.1642136610737 191.28797154646287C584.6668262098053 265.47463896482145 525.4428541016672 441.644833672613 466.39940449920755 537.636154345482 "></path><path d="M534.5532477731219 205.20211593197212C572.3556861519381 274.4430055224401 517.0799788510092 438.86852058304567 461.9727592220469 528.4604198777233C406.8655395930846 618.0523191724012 309.2960359898095 658.7491346067882 270.03859355410293 635.2432325464251C230.7811511183964 611.737330486062 271.3531893953161 507.11939888442794 273.5370355306548 415.6320899879804C275.72088166599355 324.1447810915329 226.14267745321536 239.94372777181218 280.5210550037293 196.10414984347716C334.8994325542433 152.26457191514214 496.75080939430575 135.96122634150413 534.5532477731219 205.20211593197212C572.3556861519381 274.4430055224401 517.0799788510092 438.86852058304567 461.9727592220469 528.4604198777233 "></path><path d="M524.9423124027483 219.11626031748136C560.0445766116491 283.4113720800588 508.7171341179293 436.0922074934781 457.5461444624643 519.2846854099647C406.3751548069993 602.4771633264513 315.774901461101 640.2670633726677 279.32156205651637 618.4401543166163C242.86822265193166 596.6132452605649 280.5422581947857 499.4680230590475 282.5701153204574 414.51552194091755C284.597972446129 329.56302082278785 238.5610685342636 251.3763284544757 289.0552762597408 210.66814894959316C339.54948398521805 169.95996944471062 489.84004819384745 154.82114855490397 524.9423124027483 219.11626031748136C560.0445766116491 283.4113720800588 508.7171341179293 436.0922074934781 457.5461444624643 519.2846854099647 "></path><path d="M515.3313617735855 233.03037418541248C547.7334518125708 292.3797081200994 500.3542741260603 433.31586388633264 453.1195144440926 510.10892042462785C405.884754762125 586.9019769629232 322.25375167360346 621.7849616209692 288.6045153001407 601.6370455692294C254.95527892667792 581.4891295174896 289.73131173546625 491.8166167160889 291.6031798514709 413.3989233762767C293.47504796747546 334.9812300364646 250.97944435652278 262.8088986195611 297.58948225696327 225.2321175381311C344.1995201574038 187.65533645670104 482.9292717346002 173.68104025072563 515.3313617735855 233.03037418541248C547.7334518125708 292.3797081200994 500.3542741260603 433.31586388633264 453.1195144440926 510.10892042462785 "></path><path d="M505.72041114442277 246.94450331213267C535.4223270134927 301.348059418929 491.99141413419136 430.5395355379761 448.692884425721 500.93317069808006C405.3943547172506 571.3268058581841 328.7326018861059 603.3028751280594 297.887468543765 584.8339520806314C267.0423352014242 566.3650290332033 298.9203652761468 484.1652256319194 300.63624438248434 412.2823400704249C302.3521234888219 340.39945450893043 263.39782017878196 274.24148404343555 306.12368825418577 239.79610138545803C348.8495563295896 205.3507187274805 476.01849527535296 192.5409472053364 505.72041114442277 246.94450331213267C535.4223270134927 301.348059418929 491.99141413419136 430.5395355379761 448.692884425721 500.93317069808006 "></path><path d="M496.10946051526 260.858662956431C523.1112022144146 310.3164412353367 483.6285541423224 427.76323770719773 444.2662544073494 491.7574514891105C404.90395467237624 555.7516652710232 335.21145209860833 584.8208191527281 307.1704217873894 568.0308891096117C279.1293914761704 551.2409590664952 308.1094188168273 476.513865065328 309.66930891349784 411.1657872821512C311.2291990101684 345.8177094989744 275.81619600104113 285.67409998488813 314.6578942514082 254.36011575036315C353.4995925017753 223.0461315158381 469.1077188161056 211.40088467752526 496.10946051526 260.858662956431C523.1112022144146 310.3164412353367 483.6285541423224 427.76323770719773 444.2662544073494 491.7574514891105 "></path><path d="M486.4985098860974 274.7728073419402C510.8000774153363 319.28480779295535 475.26569415045344 424.9869246176303 439.8396243889777 482.5817170213518C404.4135546275019 540.1765094250732 341.6903023111108 566.3387479186076 316.4533750310137 551.2278108798029C291.21644775091664 536.116873840998 317.2984723575079 468.86248923994754 318.70237344451135 410.0492192350884C320.1062745315148 351.2359492302293 288.23457182330026 297.1067006675517 323.19210024863065 268.92411485647915C358.14962867396105 240.74152904540665 462.19694235685836 230.2608068909251 486.4985098860974 274.7728073419402C510.8000774153363 319.28480779295535 475.26569415045344 424.9869246176303 439.8396243889777 482.5817170213518 "></path><path d="M476.88755925693465 288.68692120987134C498.4889526162582 328.25314383299593 466.9028341585845 422.21058101048476 435.41299437060604 473.4059520360149C403.9231545826276 524.6013230615451 348.16915252361326 547.8566461669091 325.7363282746381 534.4247021324159C303.3035040256629 520.9927580979227 326.48752589818844 461.21108289698896 327.73543797552486 408.9326206704475C328.9833500528613 356.65415844390606 300.65294764555944 308.5392708326371 331.72630624585315 283.4880834450171C362.7996648461468 258.43689605739706 455.2861658976111 249.12069858674676 476.88755925693465 288.68692120987134C498.4889526162582 328.25314383299593 466.9028341585845 422.21058101048476 435.41299437060604 473.4059520360149 "></path><path d="M467.2766544041391 302.6010655953806C486.17787359354725 337.2215103906146 458.5400199430827 419.43426792091736 430.98641012860156 464.2302175682562C403.4328003141204 509.02616721559514 354.6480485124829 529.3745749327886 335.0193272946296 517.6216239026071C315.3906060767763 505.8686728724256 335.6766252152362 453.5597070716085 336.76854828290556 407.81605262338473C337.86047135057487 362.07239817516097 313.0713692441858 319.9718715153006 340.2605580194428 298.0520825511331C367.44974679469976 276.1322935869656 448.375435214731 267.9806208001466 467.2766544041391 302.6010655953806C486.17787359354725 337.2215103906146 458.5400199430827 419.43426792091736 430.98641012860156 464.2302175682562 "></path><path d="M457.66565799860916 316.5151947221008C473.8667030181018 346.18986168944423 450.17711417484657 416.65793957256085 426.5597343338627 455.05446784170846C402.9423544928789 493.45099611085607 361.12685294861814 510.8924884398791 344.3022347618868 500.8185304140093C327.47761657515537 490.7445723881393 344.86563297954956 445.908315987439 345.8015670375518 406.6994693175329C346.73750109555414 367.4906226476268 325.4896992900778 331.4044569391751 348.79471824029804 312.6160663984601C372.09973719051834 293.8276758577451 441.4646129791165 286.8405277547574 457.66565799860916 316.5151947221008C473.8667030181018 346.18986168944423 450.17711417484657 416.65793957256085 426.5597343338627 455.05446784170846 "></path><path d="M448.0547226282355 330.42932384882096C461.55559347781275 355.1582129882738 441.81426944176667 413.88161122420433 422.13311957428016 445.8787181151607C402.4519697067936 477.87582500611705 367.60571841990964 492.4104019469695 353.58520326430016 484.01543692541134C339.5646881086907 475.62047190385306 354.0547017790191 438.25692490326946 354.8346468273544 405.58288601168107C355.61459187568965 372.9088471200927 337.90809037112604 342.83704236304953 357.32893949630954 327.180050245787C376.7497886214931 311.52305812852455 434.55385177865827 305.7004347093681 448.0547226282355 330.42932384882096C461.55559347781275 355.1582129882738 441.81426944176667 413.88161122420433 422.13311957428016 445.8787181151607 "></path><path d="M438.44378725786186 344.3434682343302C449.2444839375236 364.12657954589247 433.4514247086868 411.1052981346369 417.70650481469755 436.702983647402C401.96158492070833 462.3006691601671 374.08458389120113 473.92833071284906 362.86817176671354 467.21235869560246C351.65175964222595 460.49638667835586 363.24377057848875 430.605549077889 363.86772661715696 404.46631796461827C364.4916826558252 378.3270868513476 350.3264814521743 354.26964304571305 365.8631607523211 341.7440493519031C381.39984005246794 329.21845565809303 427.6430905782001 324.56035692276794 438.44378725786186 344.3434682343302C449.2444839375236 364.12657954589247 433.4514247086868 411.1052981346369 417.70650481469755 436.702983647402 "></path><path d="M428.8328366286991 358.2575973610504C436.93335913844544 373.0949308447221 425.0885647168178 408.3289697862804 413.2798747963259 427.5272339208542C401.47118487583396 446.72549805542803 380.56343410370357 455.44624421993956 372.1511250103379 450.40926520700464C363.7388159169722 445.37228619406966 372.4328241191693 422.9541579937195 372.90079114817047 403.34973465876647C373.3687581771716 383.74531132381344 362.7448572744334 365.70222846958757 374.39736674954355 356.30803319923C386.0498762246537 346.9138379288725 420.7323141189528 343.42026387737866 428.8328366286991 358.2575973610504C436.93335913844544 373.0949308447221 425.0885647168178 408.3289697862804 413.2798747963259 427.5272339208542 "></path><path d="M419.22190125832543 372.17172648777057C424.6222495981564 382.0632821435517 416.7257199837379 405.5526414379239 408.85326003674334 418.35148419430647C400.9808000897487 431.150326950689 387.0422995749951 436.96415772703 381.4340935127513 433.6061717184067C375.82588745050754 430.2481857097834 381.6218929186389 415.30276690955 381.933870937973 402.2331513529146C382.2458489573071 389.16353579627923 375.16324835548164 377.134813893462 382.93158800555506 370.872017046557C390.69992765562847 364.609220199652 413.82155291849455 362.28017083198944 419.22190125832543 372.17172648777057C424.6222495981564 382.0632821435517 416.7257199837379 405.5526414379239 408.85326003674334 418.35148419430647 "></path><path d="M409.61095062916274 386.0858708732798C412.3111247990782 391.0316487011704 408.36285999186896 402.7763283483565 404.42663001837167 409.1757497265478C400.4904000448743 415.575171104739 393.52114978749756 418.4820864929095 390.7170467563757 416.8030934885979C387.91294372525374 415.12410048428626 390.81094645931944 407.6513910841695 390.9669354689865 401.1165833058518C391.12292447865354 394.58177552753415 387.5816241777408 388.56741457612554 391.46579400277756 385.436016152673C395.34996382781424 382.3046177292205 406.9107764592473 381.1400930453892 409.61095062916274 386.0858708732798C412.3111247990782 391.0316487011704 408.36285999186896 402.7763283483565 404.42663001837167 409.1757497265478 "></path></g></svg>